<svg width="392" height="140" viewBox="0 0 392 140" fill="none" xmlns="http://www.w3.org/2000/svg">
<rect x="378" width="14" height="11.6667" fill="#C4C4C4" fill-opacity="0.01"/>
<rect x="364" width="14" height="11.6667" fill="#C4C4C4" fill-opacity="0.01"/>
<rect x="350" width="14" height="11.6667" fill="#C4C4C4" fill-opacity="0.01"/>
<rect x="336" width="14" height="11.6667" fill="#C4C4C4" fill-opacity="0.01"/>
<rect x="322" width="14" height="11.6667" fill="#C4C4C4" fill-opacity="0.01"/>
<rect x="308" width="14" height="11.6667" fill="#C4C4C4" fill-opacity="0.01"/>
<rect x="294" width="14" height="11.6667" fill="#C4C4C4" fill-opacity="0.01"/>
<rect x="280" width="14" height="11.6667" fill="#C4C4C4" fill-opacity="0.01"/>
<rect x="266" width="14" height="11.6667" fill="#C4C4C4" fill-opacity="0.01"/>
<rect x="252" width="14" height="11.6667" fill="#C4C4C4" fill-opacity="0.01"/>
<rect x="238" width="14" height="11.6667" fill="#C4C4C4" fill-opacity="0.01"/>
<rect x="224" width="14" height="11.6667" fill="#C4C4C4" fill-opacity="0.01"/>
<rect x="210" width="14" height="11.6667" fill="#C4C4C4" fill-opacity="0.01"/>
<rect x="196" width="14" height="11.6667" fill="#C4C4C4" fill-opacity="0.01"/>
<rect x="182" width="5" height="4.16668" fill="#98311F"/>
<rect x="168" width="14" height="11.6667" fill="#C4C4C4" fill-opacity="0.01"/>
<rect x="154" width="14" height="11.6667" fill="#C4C4C4" fill-opacity="0.01"/>
<rect x="140" width="14" height="11.6667" fill="#C4C4C4" fill-opacity="0.01"/>
<rect x="126" width="14" height="11.6667" fill="#C4C4C4" fill-opacity="0.01"/>
<rect x="112" width="14" height="11.6667" fill="#C4C4C4" fill-opacity="0.01"/>
<rect x="98" width="14" height="11.6667" fill="#C4C4C4" fill-opacity="0.01"/>
<rect x="84" width="14" height="11.6667" fill="#C4C4C4" fill-opacity="0.01"/>
<rect x="70" width="14" height="11.6667" fill="#C4C4C4" fill-opacity="0.01"/>
<rect x="56" width="14" height="11.6667" fill="#C4C4C4" fill-opacity="0.01"/>
<rect x="42" width="14" height="11.6667" fill="#C4C4C4" fill-opacity="0.01"/>
<rect x="28" width="14" height="11.6667" fill="#C4C4C4" fill-opacity="0.01"/>
<rect x="28" y="11.666" width="14" height="11.6667" fill="#C4C4C4" fill-opacity="0.01"/>
<rect x="42" y="11.666" width="14" height="11.6667" fill="#C4C4C4" fill-opacity="0.01"/>
<rect x="56" y="11.666" width="14" height="11.6667" fill="#C4C4C4" fill-opacity="0.01"/>
<rect x="70" y="11.666" width="14" height="11.6667" fill="#C4C4C4" fill-opacity="0.01"/>
<rect x="84" y="11.666" width="14" height="11.6667" fill="#C4C4C4" fill-opacity="0.01"/>
<rect x="98" y="11.666" width="14" height="11.6667" fill="#C4C4C4" fill-opacity="0.01"/>
<rect x="112" y="11.666" width="14" height="11.6667" fill="#C4C4C4" fill-opacity="0.01"/>
<rect x="126" y="11.666" width="14" height="11.6667" fill="#C4C4C4" fill-opacity="0.01"/>
<rect x="140" y="11.666" width="14" height="11.6667" fill="#C4C4C4" fill-opacity="0.01"/>
<rect x="154" y="11.666" width="14" height="11.6667" fill="#C4C4C4" fill-opacity="0.01"/>
<rect x="168" y="11.666" width="4" height="3.33334" fill="#3F5C05"/>
<rect x="182" y="11.666" width="14" height="11.6667" fill="#C4C4C4" fill-opacity="0.01"/>
<rect x="196" y="11.666" width="14" height="11.6667" fill="#C4C4C4" fill-opacity="0.01"/>
<rect x="210" y="11.666" width="14" height="11.6667" fill="#C4C4C4" fill-opacity="0.01"/>
<rect x="224" y="11.666" width="14" height="11.6667" fill="#C4C4C4" fill-opacity="0.01"/>
<rect x="238" y="11.666" width="14" height="11.6667" fill="#C4C4C4" fill-opacity="0.01"/>
<rect x="252" y="11.666" width="14" height="11.6667" fill="#C4C4C4" fill-opacity="0.01"/>
<rect x="266" y="11.666" width="14" height="11.6667" fill="#C4C4C4" fill-opacity="0.01"/>
<rect x="280" y="11.666" width="14" height="11.6667" fill="#C4C4C4" fill-opacity="0.01"/>
<rect x="294" y="11.666" width="14" height="11.6667" fill="#C4C4C4" fill-opacity="0.01"/>
<rect x="308" y="11.666" width="10" height="8.33336" fill="#98311F"/>
<rect x="322" y="11.666" width="14" height="11.6667" fill="#C4C4C4" fill-opacity="0.01"/>
<rect x="336" y="11.666" width="14" height="11.6667" fill="#C4C4C4" fill-opacity="0.01"/>
<rect x="350" y="11.666" width="14" height="11.6667" fill="#C4C4C4" fill-opacity="0.01"/>
<rect x="364" y="11.666" width="14" height="11.6667" fill="#C4C4C4" fill-opacity="0.01"/>
<rect x="378" y="11.666" width="14" height="11.6667" fill="#C4C4C4" fill-opacity="0.01"/>
<rect x="28" y="23.334" width="3" height="2.50001" fill="#98311F"/>
<rect x="42" y="23.334" width="14" height="11.6667" fill="#C4C4C4" fill-opacity="0.01"/>
<rect x="56" y="23.334" width="14" height="11.6667" fill="#C4C4C4" fill-opacity="0.01"/>
<rect x="70" y="23.334" width="14" height="11.6667" fill="#C4C4C4" fill-opacity="0.01"/>
<rect x="84" y="23.334" width="14" height="11.6667" fill="#C4C4C4" fill-opacity="0.01"/>
<rect x="98" y="23.334" width="14" height="11.6667" fill="#C4C4C4" fill-opacity="0.01"/>
<rect x="112" y="23.334" width="14" height="11.6667" fill="#C4C4C4" fill-opacity="0.01"/>
<rect x="126" y="23.334" width="14" height="11.6667" fill="#C4C4C4" fill-opacity="0.01"/>
<rect x="140" y="23.334" width="14" height="11.6667" fill="#C4C4C4" fill-opacity="0.01"/>
<rect x="154" y="23.334" width="14" height="11.6667" fill="#C4C4C4" fill-opacity="0.01"/>
<rect x="168" y="23.334" width="14" height="11.6667" fill="#C4C4C4" fill-opacity="0.01"/>
<rect x="182" y="23.334" width="14" height="11.6667" fill="#C4C4C4" fill-opacity="0.01"/>
<rect x="196" y="23.334" width="14" height="11.6667" fill="#C4C4C4" fill-opacity="0.01"/>
<rect x="210" y="23.334" width="14" height="11.6667" fill="#C4C4C4" fill-opacity="0.01"/>
<rect x="224" y="23.334" width="14" height="11.6667" fill="#C4C4C4" fill-opacity="0.01"/>
<rect x="238" y="23.334" width="14" height="11.6667" fill="#C4C4C4" fill-opacity="0.01"/>
<rect x="252" y="23.334" width="8" height="6.66669" fill="#3F5C05"/>
<rect x="266" y="23.334" width="14" height="11.6667" fill="#C4C4C4" fill-opacity="0.01"/>
<rect x="280" y="23.334" width="14" height="11.6667" fill="#C4C4C4" fill-opacity="0.01"/>
<rect x="294" y="23.334" width="14" height="11.6667" fill="#C4C4C4" fill-opacity="0.01"/>
<rect x="308" y="23.334" width="14" height="11.6667" fill="#C4C4C4" fill-opacity="0.01"/>
<rect x="322" y="23.334" width="14" height="11.6667" fill="#C4C4C4" fill-opacity="0.01"/>
<rect x="336" y="23.334" width="14" height="11.6667" fill="#C4C4C4" fill-opacity="0.01"/>
<rect x="350" y="23.334" width="14" height="11.6667" fill="#C4C4C4" fill-opacity="0.01"/>
<rect x="364" y="23.334" width="12" height="10" fill="#98311F"/>
<rect x="378" y="23.334" width="14" height="11.6667" fill="#C4C4C4" fill-opacity="0.01"/>
<rect x="28" y="35" width="14" height="11.6667" fill="#C4C4C4" fill-opacity="0.01"/>
<rect x="42" y="35" width="14" height="11.6667" fill="#C4C4C4" fill-opacity="0.01"/>
<rect x="56" y="35" width="6" height="5.00001" fill="#09255D"/>
<rect x="70" y="35" width="14" height="11.6667" fill="#C4C4C4" fill-opacity="0.01"/>
<rect x="84" y="35" width="14" height="11.6667" fill="#C4C4C4" fill-opacity="0.01"/>
<rect x="98" y="35" width="14" height="11.6667" fill="#C4C4C4" fill-opacity="0.01"/>
<rect x="112" y="35" width="9" height="7.50002" fill="#3F5C05"/>
<rect x="126" y="35" width="14" height="11.6667" fill="#C4C4C4" fill-opacity="0.01"/>
<rect x="140" y="35" width="2" height="1.66667" fill="#09255D"/>
<rect x="154" y="35" width="14" height="11.6667" fill="#C4C4C4" fill-opacity="0.01"/>
<rect x="168" y="35" width="4" height="3.33334" fill="#09255D"/>
<rect x="182" y="35" width="14" height="11.6667" fill="#C4C4C4" fill-opacity="0.01"/>
<rect x="196" y="35" width="14" height="11.6667" fill="#C4C4C4" fill-opacity="0.01"/>
<rect x="210" y="35" width="6" height="5.00001" fill="#98311F"/>
<rect x="224" y="35" width="14" height="11.6667" fill="#C4C4C4" fill-opacity="0.01"/>
<rect x="238" y="35" width="14" height="11.6667" fill="#C4C4C4" fill-opacity="0.01"/>
<rect x="252" y="35" width="14" height="11.6667" fill="#C4C4C4" fill-opacity="0.01"/>
<rect x="266" y="35" width="9" height="7.50002" fill="#09255D"/>
<rect x="280" y="35" width="14" height="11.6667" fill="#C4C4C4" fill-opacity="0.01"/>
<rect x="294" y="35" width="14" height="11.6667" fill="#C4C4C4" fill-opacity="0.01"/>
<rect x="308" y="35" width="14" height="11.6667" fill="#C4C4C4" fill-opacity="0.01"/>
<rect x="322" y="35" width="14" height="11.6667" fill="#C4C4C4" fill-opacity="0.01"/>
<rect x="336" y="35" width="11" height="9.16669" fill="#09255D"/>
<rect x="350" y="35" width="14" height="11.6667" fill="#C4C4C4" fill-opacity="0.01"/>
<rect x="364" y="35" width="14" height="11.6667" fill="#C4C4C4" fill-opacity="0.01"/>
<rect x="28" y="46.6665" width="14" height="11.6667" fill="#C4C4C4" fill-opacity="0.01"/>
<rect x="42" y="46.6665" width="14" height="11.6667" fill="#C4C4C4" fill-opacity="0.01"/>
<rect x="56" y="46.6665" width="14" height="11.6667" fill="#C4C4C4" fill-opacity="0.01"/>
<rect x="70" y="46.6665" width="14" height="11.6667" fill="#C4C4C4" fill-opacity="0.01"/>
<rect x="84" y="46.6665" width="14" height="11.6667" fill="#C4C4C4" fill-opacity="0.01"/>
<rect x="98" y="46.6665" width="14" height="11.6667" fill="#C4C4C4" fill-opacity="0.01"/>
<rect x="112" y="46.6665" width="14" height="11.6667" fill="#C4C4C4" fill-opacity="0.01"/>
<rect x="126" y="46.6665" width="10" height="8.33336" fill="#98311F"/>
<rect x="140" y="46.6665" width="14" height="11.6667" fill="#C4C4C4" fill-opacity="0.01"/>
<rect x="154" y="46.6665" width="14" height="11.6667" fill="#C4C4C4" fill-opacity="0.01"/>
<rect x="168" y="46.6665" width="14" height="11.6667" fill="#C4C4C4" fill-opacity="0.01"/>
<rect x="182" y="46.6665" width="14" height="11.6667" fill="#C4C4C4" fill-opacity="0.01"/>
<rect x="196" y="46.6665" width="14" height="11.6667" fill="#C4C4C4" fill-opacity="0.01"/>
<rect x="210" y="46.6665" width="14" height="11.6667" fill="#C4C4C4" fill-opacity="0.01"/>
<rect x="224" y="46.6665" width="14" height="11.6667" fill="#C4C4C4" fill-opacity="0.01"/>
<rect x="238" y="46.6665" width="14" height="11.6667" fill="#C4C4C4" fill-opacity="0.01"/>
<rect x="252" y="46.6665" width="14" height="11.6667" fill="#C4C4C4" fill-opacity="0.01"/>
<rect x="266" y="46.6665" width="14" height="11.6667" fill="#C4C4C4" fill-opacity="0.01"/>
<rect x="280" y="46.6665" width="14" height="11.6667" fill="#C4C4C4" fill-opacity="0.01"/>
<rect x="294" y="46.6665" width="14" height="11.6667" fill="#C4C4C4" fill-opacity="0.01"/>
<rect x="308" y="46.6665" width="14" height="11.6667" fill="#C4C4C4" fill-opacity="0.01"/>
<rect x="322" y="46.6665" width="14" height="11.6667" fill="#C4C4C4" fill-opacity="0.01"/>
<rect x="336" y="46.6665" width="14" height="11.6667" fill="#C4C4C4" fill-opacity="0.01"/>
<rect x="350" y="46.6665" width="14" height="11.6667" fill="#C4C4C4" fill-opacity="0.01"/>
<rect x="364" y="46.6665" width="14" height="11.6667" fill="#C4C4C4" fill-opacity="0.01"/>
<rect x="378" y="46.6665" width="14" height="11.6667" fill="#C4C4C4" fill-opacity="0.01"/>
<rect x="28" y="58.334" width="14" height="11.6667" fill="#C4C4C4" fill-opacity="0.01"/>
<rect x="42" y="58.334" width="14" height="11.6667" fill="#C4C4C4" fill-opacity="0.01"/>
<rect x="56" y="58.334" width="14" height="11.6667" fill="#C4C4C4" fill-opacity="0.01"/>
<rect x="70" y="58.334" width="14" height="11.6667" fill="#C4C4C4" fill-opacity="0.01"/>
<rect x="84" y="58.334" width="14" height="11.6667" fill="#C4C4C4" fill-opacity="0.01"/>
<rect x="98" y="58.334" width="14" height="11.6667" fill="#C4C4C4" fill-opacity="0.01"/>
<rect x="112" y="58.334" width="14" height="11.6667" fill="#C4C4C4" fill-opacity="0.01"/>
<rect x="126" y="58.334" width="14" height="11.6667" fill="#C4C4C4" fill-opacity="0.01"/>
<rect x="140" y="58.334" width="14" height="11.6667" fill="#C4C4C4" fill-opacity="0.01"/>
<rect x="154" y="58.334" width="14" height="11.6667" fill="#C4C4C4" fill-opacity="0.01"/>
<rect x="168" y="58.334" width="14" height="11.6667" fill="#C4C4C4" fill-opacity="0.01"/>
<rect x="182" y="58.334" width="5" height="4.16668" fill="#3F5C05"/>
<rect x="196" y="58.334" width="14" height="11.6667" fill="#C4C4C4" fill-opacity="0.01"/>
<rect x="210" y="58.334" width="14" height="11.6667" fill="#C4C4C4" fill-opacity="0.01"/>
<rect x="224" y="58.334" width="14" height="11.6667" fill="#C4C4C4" fill-opacity="0.01"/>
<rect x="238" y="58.334" width="14" height="11.6667" fill="#C4C4C4" fill-opacity="0.01"/>
<rect x="252" y="58.334" width="14" height="11.6667" fill="#C4C4C4" fill-opacity="0.01"/>
<rect x="266" y="58.334" width="14" height="11.6667" fill="#C4C4C4" fill-opacity="0.01"/>
<rect x="280" y="58.334" width="14" height="11.6667" fill="#C4C4C4" fill-opacity="0.01"/>
<rect x="294" y="58.334" width="14" height="11.6667" fill="#C4C4C4" fill-opacity="0.01"/>
<rect x="308" y="58.334" width="14" height="11.6667" fill="#C4C4C4" fill-opacity="0.01"/>
<rect x="322" y="58.334" width="14" height="11.6667" fill="#C4C4C4" fill-opacity="0.01"/>
<rect x="336" y="58.334" width="14" height="11.6667" fill="#C4C4C4" fill-opacity="0.01"/>
<rect x="350" y="58.334" width="14" height="11.6667" fill="#C4C4C4" fill-opacity="0.01"/>
<rect x="364" y="58.334" width="14" height="11.6667" fill="#C4C4C4" fill-opacity="0.01"/>
<rect x="378" y="58.334" width="14" height="11.6667" fill="#3F5C05"/>
<rect x="28" y="70" width="14" height="11.6667" fill="#C4C4C4" fill-opacity="0.01"/>
<rect x="42" y="70" width="14" height="11.6667" fill="#C4C4C4" fill-opacity="0.01"/>
<rect x="56" y="70" width="6" height="5.00001" fill="#3F5C05"/>
<rect x="70" y="70" width="7" height="5.83335" fill="#09255D"/>
<rect x="84" y="70" width="14" height="11.6667" fill="#C4C4C4" fill-opacity="0.01"/>
<rect x="98" y="70" width="14" height="11.6667" fill="#C4C4C4" fill-opacity="0.01"/>
<rect x="112" y="70" width="9" height="7.50002" fill="#09255D"/>
<rect x="126" y="70" width="14" height="11.6667" fill="#C4C4C4" fill-opacity="0.01"/>
<rect x="140" y="70" width="14" height="11.6667" fill="#C4C4C4" fill-opacity="0.01"/>
<rect x="154" y="70" width="14" height="11.6667" fill="#C4C4C4" fill-opacity="0.01"/>
<rect x="168" y="70" width="4" height="3.33334" fill="#09255D"/>
<rect x="182" y="70" width="14" height="11.6667" fill="#C4C4C4" fill-opacity="0.01"/>
<rect x="196" y="70" width="14" height="11.6667" fill="#C4C4C4" fill-opacity="0.01"/>
<rect x="210" y="70" width="14" height="11.6667" fill="#C4C4C4" fill-opacity="0.01"/>
<rect x="224" y="70" width="14" height="11.6667" fill="#C4C4C4" fill-opacity="0.01"/>
<rect x="238" y="70" width="7" height="5.83335" fill="#09255D"/>
<rect x="252" y="70" width="14" height="11.6667" fill="#C4C4C4" fill-opacity="0.01"/>
<rect x="266" y="70" width="14" height="11.6667" fill="#C4C4C4" fill-opacity="0.01"/>
<rect x="280" y="70" width="14" height="11.6667" fill="#C4C4C4" fill-opacity="0.01"/>
<rect x="294" y="70" width="14" height="11.6667" fill="#C4C4C4" fill-opacity="0.01"/>
<rect x="308" y="70" width="10" height="8.33336" fill="#3F5C05"/>
<rect x="322" y="70" width="14" height="11.6667" fill="#C4C4C4" fill-opacity="0.01"/>
<rect x="336" y="70" width="11" height="9.16669" fill="#09255D"/>
<rect x="350" y="70" width="14" height="11.6667" fill="#C4C4C4" fill-opacity="0.01"/>
<rect x="364" y="70" width="14" height="11.6667" fill="#C4C4C4" fill-opacity="0.01"/>
<rect x="378" y="70" width="14" height="11.6667" fill="#09255D"/>
<rect x="28" y="81.6665" width="14" height="11.6667" fill="#C4C4C4" fill-opacity="0.01"/>
<rect x="42" y="81.6665" width="14" height="11.6667" fill="#C4C4C4" fill-opacity="0.01"/>
<rect x="56" y="81.6665" width="14" height="11.6667" fill="#C4C4C4" fill-opacity="0.01"/>
<rect x="70" y="81.6665" width="14" height="11.6667" fill="#C4C4C4" fill-opacity="0.01"/>
<rect x="84" y="81.6665" width="14" height="11.6667" fill="#C4C4C4" fill-opacity="0.01"/>
<rect x="98" y="81.6665" width="14" height="11.6667" fill="#C4C4C4" fill-opacity="0.01"/>
<rect x="112" y="81.6665" width="14" height="11.6667" fill="#C4C4C4" fill-opacity="0.01"/>
<rect x="126" y="81.6665" width="14" height="11.6667" fill="#C4C4C4" fill-opacity="0.01"/>
<rect x="140" y="81.6665" width="14" height="11.6667" fill="#C4C4C4" fill-opacity="0.01"/>
<rect x="154" y="81.6665" width="14" height="11.6667" fill="#C4C4C4" fill-opacity="0.01"/>
<rect x="168" y="81.6665" width="14" height="11.6667" fill="#C4C4C4" fill-opacity="0.01"/>
<rect x="182" y="81.6665" width="14" height="11.6667" fill="#C4C4C4" fill-opacity="0.01"/>
<rect x="196" y="81.6665" width="14" height="11.6667" fill="#C4C4C4" fill-opacity="0.01"/>
<rect x="210" y="81.6665" width="14" height="11.6667" fill="#C4C4C4" fill-opacity="0.01"/>
<rect x="224" y="81.6665" width="14" height="11.6667" fill="#C4C4C4" fill-opacity="0.01"/>
<rect x="238" y="81.6665" width="14" height="11.6667" fill="#C4C4C4" fill-opacity="0.01"/>
<rect x="252" y="81.6665" width="14" height="11.6667" fill="#C4C4C4" fill-opacity="0.01"/>
<rect x="266" y="81.6665" width="14" height="11.6667" fill="#C4C4C4" fill-opacity="0.01"/>
<rect x="280" y="81.6665" width="14" height="11.6667" fill="#C4C4C4" fill-opacity="0.01"/>
<rect x="294" y="81.6665" width="14" height="11.6667" fill="#C4C4C4" fill-opacity="0.01"/>
<rect x="308" y="81.6665" width="14" height="11.6667" fill="#C4C4C4" fill-opacity="0.01"/>
<rect x="322" y="81.6665" width="14" height="11.6667" fill="#C4C4C4" fill-opacity="0.01"/>
<rect x="336" y="81.6665" width="14" height="11.6667" fill="#C4C4C4" fill-opacity="0.01"/>
<rect x="350" y="81.6665" width="14" height="11.6667" fill="#C4C4C4" fill-opacity="0.01"/>
<rect x="364" y="81.6665" width="14" height="11.6667" fill="#C4C4C4" fill-opacity="0.01"/>
<rect x="378" y="81.6665" width="14" height="11.6667" fill="#98311F"/>
<rect x="28" y="93.3337" width="14" height="11.6667" fill="#C4C4C4" fill-opacity="0.01"/>
<rect x="42" y="93.3337" width="14" height="11.6667" fill="#C4C4C4" fill-opacity="0.01"/>
<rect x="56" y="93.3337" width="6" height="5.00001" fill="#98311F"/>
<rect x="70" y="93.3337" width="14" height="11.6667" fill="#C4C4C4" fill-opacity="0.01"/>
<rect x="84" y="93.3337" width="14" height="11.6667" fill="#C4C4C4" fill-opacity="0.01"/>
<rect x="98" y="93.3337" width="14" height="11.6667" fill="#C4C4C4" fill-opacity="0.01"/>
<rect x="112" y="93.3337" width="14" height="11.6667" fill="#C4C4C4" fill-opacity="0.01"/>
<rect x="126" y="93.3337" width="14" height="11.6667" fill="#C4C4C4" fill-opacity="0.01"/>
<rect x="140" y="93.3337" width="14" height="11.6667" fill="#C4C4C4" fill-opacity="0.01"/>
<rect x="154" y="93.3337" width="14" height="11.6667" fill="#C4C4C4" fill-opacity="0.01"/>
<rect x="168" y="93.3337" width="14" height="11.6667" fill="#C4C4C4" fill-opacity="0.01"/>
<rect x="182" y="93.3337" width="14" height="11.6667" fill="#C4C4C4" fill-opacity="0.01"/>
<rect x="196" y="93.3337" width="14" height="11.6667" fill="#C4C4C4" fill-opacity="0.01"/>
<rect x="210" y="93.3337" width="14" height="11.6667" fill="#C4C4C4" fill-opacity="0.01"/>
<rect x="224" y="93.3337" width="14" height="11.6667" fill="#C4C4C4" fill-opacity="0.01"/>
<rect x="238" y="93.3337" width="14" height="11.6667" fill="#C4C4C4" fill-opacity="0.01"/>
<rect x="252" y="93.3337" width="14" height="11.6667" fill="#C4C4C4" fill-opacity="0.01"/>
<rect x="266" y="93.3337" width="14" height="11.6667" fill="#C4C4C4" fill-opacity="0.01"/>
<rect x="280" y="93.3337" width="14" height="11.6667" fill="#C4C4C4" fill-opacity="0.01"/>
<rect x="294" y="93.3337" width="14" height="11.6667" fill="#C4C4C4" fill-opacity="0.01"/>
<rect x="308" y="93.3337" width="14" height="11.6667" fill="#C4C4C4" fill-opacity="0.01"/>
<rect x="322" y="93.3337" width="14" height="11.6667" fill="#C4C4C4" fill-opacity="0.01"/>
<rect x="336" y="93.3337" width="14" height="11.6667" fill="#C4C4C4" fill-opacity="0.01"/>
<rect x="350" y="93.3337" width="14" height="11.6667" fill="#C4C4C4" fill-opacity="0.01"/>
<rect x="364" y="93.3337" width="14" height="11.6667" fill="#C4C4C4" fill-opacity="0.01"/>
<rect x="378" y="93.3337" width="14" height="11.6667" fill="#C4C4C4" fill-opacity="0.01"/>
<rect x="28" y="105" width="14" height="11.6667" fill="#C4C4C4" fill-opacity="0.01"/>
<rect x="42" y="105" width="14" height="11.6667" fill="#C4C4C4" fill-opacity="0.01"/>
<rect x="56" y="105" width="14" height="11.6667" fill="#C4C4C4" fill-opacity="0.01"/>
<rect x="70" y="105" width="14" height="11.6667" fill="#C4C4C4" fill-opacity="0.01"/>
<rect x="84" y="105" width="8" height="6.66669" fill="#3F5C05"/>
<rect x="98" y="105" width="14" height="11.6667" fill="#C4C4C4" fill-opacity="0.01"/>
<rect x="112" y="105" width="14" height="11.6667" fill="#C4C4C4" fill-opacity="0.01"/>
<rect x="126" y="105" width="14" height="11.6667" fill="#C4C4C4" fill-opacity="0.01"/>
<rect x="140" y="105" width="14" height="11.6667" fill="#C4C4C4" fill-opacity="0.01"/>
<rect x="154" y="105" width="14" height="11.6667" fill="#C4C4C4" fill-opacity="0.01"/>
<rect x="168" y="105" width="14" height="11.6667" fill="#C4C4C4" fill-opacity="0.01"/>
<rect x="182" y="105" width="14" height="11.6667" fill="#C4C4C4" fill-opacity="0.01"/>
<rect x="196" y="105" width="14" height="11.6667" fill="#C4C4C4" fill-opacity="0.01"/>
<rect x="210" y="105" width="14" height="11.6667" fill="#C4C4C4" fill-opacity="0.01"/>
<rect x="224" y="105" width="14" height="11.6667" fill="#C4C4C4" fill-opacity="0.01"/>
<rect x="238" y="105" width="7" height="5.83335" fill="#3F5C05"/>
<rect x="252" y="105" width="14" height="11.6667" fill="#C4C4C4" fill-opacity="0.01"/>
<rect x="266" y="105" width="14" height="11.6667" fill="#C4C4C4" fill-opacity="0.01"/>
<rect x="280" y="105" width="9" height="7.50002" fill="#98311F"/>
<rect x="294" y="105" width="14" height="11.6667" fill="#C4C4C4" fill-opacity="0.01"/>
<rect x="308" y="105" width="14" height="11.6667" fill="#C4C4C4" fill-opacity="0.01"/>
<rect x="322" y="105" width="14" height="11.6667" fill="#C4C4C4" fill-opacity="0.01"/>
<rect x="336" y="105" width="14" height="11.6667" fill="#C4C4C4" fill-opacity="0.01"/>
<rect x="350" y="105" width="14" height="11.6667" fill="#C4C4C4" fill-opacity="0.01"/>
<rect x="364" y="105" width="14" height="11.6667" fill="#C4C4C4" fill-opacity="0.01"/>
<rect x="378" y="105" width="14" height="11.6667" fill="#C4C4C4" fill-opacity="0.01"/>
<rect x="28" y="116.667" width="14" height="11.6667" fill="#C4C4C4" fill-opacity="0.01"/>
<rect x="42" y="116.667" width="14" height="11.6667" fill="#C4C4C4" fill-opacity="0.01"/>
<rect x="56" y="116.667" width="6" height="5.00001" fill="#09255D"/>
<rect x="70" y="116.667" width="14" height="11.6667" fill="#C4C4C4" fill-opacity="0.01"/>
<rect x="84" y="116.667" width="14" height="11.6667" fill="#C4C4C4" fill-opacity="0.01"/>
<rect x="98" y="116.667" width="14" height="11.6667" fill="#C4C4C4" fill-opacity="0.01"/>
<rect x="112" y="116.667" width="9" height="7.50002" fill="#09255D"/>
<rect x="126" y="116.667" width="14" height="11.6667" fill="#C4C4C4" fill-opacity="0.01"/>
<rect x="140" y="116.667" width="2" height="1.66667" fill="#3F5C05"/>
<rect x="154" y="116.667" width="3" height="2.50001" fill="#09255D"/>
<rect x="168" y="116.667" width="14" height="11.6667" fill="#C4C4C4" fill-opacity="0.01"/>
<rect x="182" y="116.667" width="14" height="11.6667" fill="#C4C4C4" fill-opacity="0.01"/>
<rect x="196" y="116.667" width="14" height="11.6667" fill="#C4C4C4" fill-opacity="0.01"/>
<rect x="210" y="116.667" width="14" height="11.6667" fill="#C4C4C4" fill-opacity="0.01"/>
<rect x="224" y="116.667" width="14" height="11.6667" fill="#C4C4C4" fill-opacity="0.01"/>
<rect x="238" y="116.667" width="14" height="11.6667" fill="#C4C4C4" fill-opacity="0.01"/>
<rect x="252" y="116.667" width="8" height="6.66669" fill="#09255D"/>
<rect x="266" y="116.667" width="14" height="11.6667" fill="#C4C4C4" fill-opacity="0.01"/>
<rect x="280" y="116.667" width="14" height="11.6667" fill="#C4C4C4" fill-opacity="0.01"/>
<rect x="294" y="116.667" width="14" height="11.6667" fill="#C4C4C4" fill-opacity="0.01"/>
<rect x="308" y="116.667" width="14" height="11.6667" fill="#C4C4C4" fill-opacity="0.01"/>
<rect x="322" y="116.667" width="14" height="11.6667" fill="#C4C4C4" fill-opacity="0.01"/>
<rect x="336" y="116.667" width="14" height="11.6667" fill="#C4C4C4" fill-opacity="0.01"/>
<rect x="364" y="116.667" width="12" height="10" fill="#09255D"/>
<rect x="378" y="116.667" width="14" height="11.6667" fill="#C4C4C4" fill-opacity="0.01"/>
<rect x="28" y="128.333" width="3" height="2.50001" fill="#3F5C05"/>
<rect x="14" y="128.333" width="14" height="11.6667" fill="#C4C4C4" fill-opacity="0.01"/>
<rect x="14" y="116.667" width="2" height="1.66667" fill="#09255D"/>
<rect x="14" y="105" width="2" height="1.66667" fill="#3F5C05"/>
<rect x="14" y="93.3337" width="14" height="11.6667" fill="#C4C4C4" fill-opacity="0.01"/>
<rect x="14" y="81.6665" width="14" height="11.6667" fill="#C4C4C4" fill-opacity="0.01"/>
<rect x="14" y="70" width="2" height="1.66667" fill="#09255D"/>
<rect x="14" y="58.334" width="14" height="11.6667" fill="#C4C4C4" fill-opacity="0.01"/>
<rect x="14" y="46.6665" width="14" height="11.6667" fill="#C4C4C4" fill-opacity="0.01"/>
<rect x="14" y="35" width="2" height="1.66667" fill="#09255D"/>
<rect x="14" y="23.334" width="14" height="11.6667" fill="#C4C4C4" fill-opacity="0.01"/>
<rect x="14" y="11.666" width="14" height="11.6667" fill="#C4C4C4" fill-opacity="0.01"/>
<rect x="14" width="14" height="11.6667" fill="#C4C4C4" fill-opacity="0.01"/>
<rect y="128.333" width="14" height="11.6667" fill="#C4C4C4" fill-opacity="0.01"/>
<rect x="42" y="128.333" width="14" height="11.6667" fill="#C4C4C4" fill-opacity="0.01"/>
<rect x="56" y="128.333" width="14" height="11.6667" fill="#C4C4C4" fill-opacity="0.01"/>
<rect x="70" y="128.333" width="14" height="11.6667" fill="#C4C4C4" fill-opacity="0.01"/>
<rect x="84" y="128.333" width="14" height="11.6667" fill="#C4C4C4" fill-opacity="0.01"/>
<rect x="98" y="128.333" width="14" height="11.6667" fill="#C4C4C4" fill-opacity="0.01"/>
<rect x="112" y="128.333" width="14" height="11.6667" fill="#C4C4C4" fill-opacity="0.01"/>
<rect x="126" y="128.333" width="14" height="11.6667" fill="#C4C4C4" fill-opacity="0.01"/>
<rect x="140" y="128.333" width="14" height="11.6667" fill="#C4C4C4" fill-opacity="0.01"/>
<rect x="154" y="128.333" width="14" height="11.6667" fill="#C4C4C4" fill-opacity="0.01"/>
<rect x="168" y="128.333" width="14" height="11.6667" fill="#C4C4C4" fill-opacity="0.01"/>
<rect x="182" y="128.333" width="14" height="11.6667" fill="#C4C4C4" fill-opacity="0.01"/>
<rect x="196" y="128.333" width="14" height="11.6667" fill="#C4C4C4" fill-opacity="0.01"/>
<rect x="210" y="128.333" width="6" height="5.00001" fill="#3F5C05"/>
<rect x="224" y="128.333" width="14" height="11.6667" fill="#C4C4C4" fill-opacity="0.01"/>
<rect x="238" y="128.333" width="14" height="11.6667" fill="#C4C4C4" fill-opacity="0.01"/>
<rect x="252" y="128.333" width="14" height="11.6667" fill="#C4C4C4" fill-opacity="0.01"/>
<rect x="266" y="128.333" width="14" height="11.6667" fill="#C4C4C4" fill-opacity="0.01"/>
<rect x="280" y="128.333" width="14" height="11.6667" fill="#C4C4C4" fill-opacity="0.01"/>
<rect x="294" y="128.333" width="14" height="11.6667" fill="#C4C4C4" fill-opacity="0.01"/>
<rect x="308" y="128.333" width="14" height="11.6667" fill="#C4C4C4" fill-opacity="0.01"/>
<rect x="322" y="128.333" width="14" height="11.6667" fill="#C4C4C4" fill-opacity="0.01"/>
<rect x="336" y="128.333" width="11" height="9.16669" fill="#3F5C05"/>
<rect x="350" y="128.333" width="14" height="11.6667" fill="#C4C4C4" fill-opacity="0.01"/>
<rect x="364" y="128.333" width="14" height="11.6667" fill="#C4C4C4" fill-opacity="0.01"/>
<rect x="378" y="128.333" width="14" height="11.6667" fill="#C4C4C4" fill-opacity="0.01"/>
</svg>
